<svg xmlns="http://www.w3.org/2000/svg" version="1.0" viewBox="0 0 2499 2499"><path d="M1189 392.7c-210.9 7.6-407.8 48.8-584.5 122.3C339.4 625.4 142.8 800.3 56 1003c-25.6 59.9-40.9 119.4-47.7 186-2.4 23.5-2.4 81 0 105 7.7 76.8 26.7 144.3 60.2 213.7 74.5 154.1 211.9 290.3 397.3 393.7 187.4 104.5 419.3 170 659.2 186.1 76.5 5.1 163.1 5.3 238.5.5 278.8-17.8 541.1-100.2 744-233.8 64.4-42.3 113.5-82.2 165.1-133.7 28.7-28.7 42.5-43.9 63.9-70.5 79.4-98.9 129.4-208.1 146.4-320 24-158.3-17.3-318.3-118.9-460.5-92.8-129.8-237-244.8-408.5-325.8-192.7-91-406.7-141.4-640-150.7-21.9-.9-105.6-1.1-126.5-.3zm140 18.3c43.7 2.1 88.5 5.8 129 10.6 285.1 33.7 545.8 136.8 732.4 289.6 33 27.1 83 74.9 107.8 103.3 58.5 66.9 100.6 133.8 130.5 207.5 8.6 21.2 20.7 58.6 26.2 81 5.1 20.7 10.7 48.8 9.8 49.6-.2.3-1-2.4-1.7-5.8-8.2-41.8-30.7-99.1-56-142.3-53-90.5-131.7-170.2-237-240-40.5-26.8-69.1-43.4-114-66-161.3-81.1-353.1-132-556-147.5-48.8-3.7-60.2-4.1-119.5-4.7-59.7-.6-92.5.2-138 3.3C950 569.1 683 660.4 496.5 804.4c-66.6 51.5-122.8 110.7-163 171.6-68.9 104.5-95.8 216.3-79.4 329.9 35.6 246.6 282.5 464.7 644 568.6 120.7 34.8 241.4 54.2 383.4 61.7 50.6 2.6 147.3 1.3 204.5-2.7 264.1-19 501.9-93.5 684-214.6 51.6-34.3 89.6-64.8 129.4-103.9 28.4-27.9 47.8-49.8 68.5-77.5 46.3-61.6 77.6-126.5 93.6-193.9 4.2-17.7 4.4-15.7.4 5-12.7 66.1-36.2 129.4-71 191.1-69.9 123.7-185.5 236.8-332.4 325-179.5 107.8-400.2 177.7-634 200.7-56.3 5.6-94.1 7.6-156.5 8.3-66.4.7-118.8-1.2-181-6.8-282.8-25.2-547.3-119.2-742-263.7-84.1-62.5-156.8-136.5-208.3-212.2-61.6-90.6-98.6-187.2-109.6-286-4.6-40.8-4.4-90.2.5-131C53 959.7 200.7 760.3 439.8 617.1 638 498.4 884.1 427.1 1148 412c51.2-3 130.9-3.4 181-1zM984 949v50l-80.7.2-80.8.3-.3 247.2-.2 247.3H686l-.2-247.3-.3-247.2-80-.5-80-.5-.3-49.8-.2-49.7h459v50zm314.4 157.7c37.3 114.3 68.4 209.3 69.2 211 1.1 2.8 1.8 3.3 4.7 3.3 1.9 0 3.9-.6 4.5-1.3.5-.6 32.2-95.6 70.3-211l69.3-209.7H1698v595h-135v-150.5l6.6-135.7c5.3-109.1 6.4-136.1 5.4-137.3-1.8-2.1-7.7-1.9-8.8.2-.5 1-33.9 96.6-74.3 212.6l-73.4 210.7-45.5-.2-45.4-.3-72.7-209c-39.9-115-73.3-209.7-74.1-210.6-1.2-1.3-2.5-1.5-4.9-1-3.2.6-3.4 1-3.7 5.1-.1 2.5 2.7 63.3 6.3 135.2l6.5 130.7V1494h-135V899h180.6l67.8 207.7zm761.2-205.4c50.4 7.6 88.3 23.6 123.9 52.2 41.3 33.1 69.1 76.4 80.8 126 6.1 25.6 6 24.2 6.5 110 .4 85.7.1 91.8-4.9 116.8-9.1 45.9-30.4 84.8-64.5 117.7-39.3 38-81.2 58.3-139.4 67.7-9.4 1.5-23.9 1.7-135.2 2l-124.8.4V898.9l123.3.4c109.4.3 124.4.5 134.3 2zm406.1 255.9c-.3.8-.6.5-.6-.6-.1-1.1.2-1.7.5-1.3.3.3.4 1.2.1 1.9z"/><path d="M1938.7 999.7c-.4.3-.7 89-.7 196.9v196.3l2.1 1.2c1.6.8 13.8 1 45.3.6 46.2-.6 51-1 67.8-6.3 39.7-12.5 68.5-47.1 78.7-94.5 3.7-17.5 4.1-26.9 4.1-98.3 0-74.1-.4-82.2-5.2-101.6-8.8-36.2-30.2-65.7-58.8-81.3-3.6-2-11.3-5.2-17.2-7.2-17.5-5.8-24.8-6.5-72.9-6.5-23.4 0-42.9.3-43.2.7z"/></svg>