<svg version="1.0" xmlns="http://www.w3.org/2000/svg" viewBox="0 0 512 512"><path d="M237.7 80.6c-.1.1-4.7.5-10.2.8-5.5.4-11.3.9-13 1.1-1.6.3-4.8.7-7 .9-2.2.3-5.3.8-7 1-1.6.3-4.5.7-6.2 1-5.2.7-14.2 2.6-22.8 4.8-4.4 1.1-8.8 2.2-9.7 2.4-1 .2-2.6.6-3.5.8-3.3.8-22.8 7.4-28.3 9.6-6.9 2.7-10.4 4.3-20.7 9.2-4.5 2.2-8.5 3.9-8.9 3.8-.4-.1-1 .2-1.3.7-.3.5-2.6 2-5.1 3.4-19.8 10.8-41.8 28.3-56.5 45-6.7 7.6-8.1 9.4-13.2 17-11.6 17.4-19.1 36.5-21.9 55.4-1 7-1.2 28.4-.3 32 .4 1.6 1 4.8 1.3 7 .2 2.2.9 5.3 1.5 6.8s.9 2.7.6 2.7c-.2 0 .5 2.6 1.6 5.7 8.3 24.7 25.4 49.7 47.5 69.3 8.9 7.9 32.8 25 34.5 24.6.4 0 1.5.6 2.5 1.5 1.8 1.6 25.6 13.9 26.8 13.9.3 0 2.9 1.1 5.8 2.4 12 5.5 54.6 18.2 61.8 18.5.8 0 3.8.5 6.5 1.1 7 1.5 9.2 1.8 15.5 2.4 3 .3 7.1.8 9 1.1 15.6 2.3 68.2 2.3 77 0 .8-.2 4.2-.6 7.5-1 3.3-.3 7.4-.8 9-1.1 1.7-.3 4.4-.7 6-.9 1.7-.2 4.1-.6 5.5-.9 1.4-.3 4.8-1 7.5-1.6 2.8-.6 6.1-1.3 7.5-1.6 16.2-3.4 43.4-12.7 62.5-21.4 8.3-3.8 29.3-15.6 31.2-17.6.8-.8 1.8-1.4 2.2-1.4.8 0 13.2-9.1 20.1-14.8 8.6-7.1 24.5-23.8 28.5-29.8 1-1.6 2.5-3.5 3.2-4.2 1.7-1.8 10.2-16.2 13.5-23.2 2.9-5.9 7.5-19.4 8.4-24.3.3-1.7.7-3.4 1-3.8 1.7-2.9 2.6-32.5 1.2-41.9-5.3-36-26.8-69.6-62.8-98.1-14.2-11.2-37-24.3-56.5-32.4-4.9-2-9.9-4.1-11-4.6-2.5-1.1-10.5-3.9-12.5-4.4-.8-.2-1.6-.4-1.7-.5-.2-.2-.6-.3-1-.4-.5-.1-3.5-1-6.8-2s-6.2-1.8-6.5-1.8c-.3-.1-3.4-.8-7-1.8-10.7-2.8-23.4-5.4-31.5-6.5-1.1-.2-3.8-.5-6-.9-15.7-2.1-25.5-2.8-47.3-3-11.1-.1-20.3-.1-20.5 0zm90.3 38.2c47 7.2 83.2 20.2 114.8 41.3 40.9 27.2 61.8 61.9 59.9 98.9-1.3 24-11.6 45.6-31.6 66.4-33 34.1-83.2 56.2-148.1 65.3-18.2 2.5-69.1 2.5-88 0-92.4-12.5-160.9-56.2-177-112.8-3.1-10.8-3.8-28.9-1.6-39.9 9.3-45.5 52.3-84.4 117.1-105.9 19.9-6.6 45.4-12.2 66-14.5 19.6-2.2 70.4-1.5 88.5 1.2z"/><path d="M106.7 182.7c-.4.3-.7 5.7-.7 11.9V206l16.3.2 16.2.3.3 50.7.2 50.8h31l.2-50.8.3-50.7 16.3-.3 16.2-.2v-24h-47.8c-26.3 0-48.2.3-48.5.7zM213.5 183.2c-.3.7-.4 29-.3 62.8l.3 61.5h31l.3-12c.1-6.6-.4-24.6-1.2-40-.8-15.4-1.3-28.1-1.2-28.2.1-.1 6.5 17.9 14.2 40l14 40.2 10.6.3 10.6.3 2.9-8.3c1.7-4.6 8.1-23 14.4-41 6.2-18 11.4-32.6 11.5-32.5.1.1-.4 12.9-1.2 28.5-.8 15.6-1.3 33.8-1.2 40.5l.3 12.2h31v-125h-40L295.4 225l-14.1 42.4-13.9-42.4-14-42.5-19.7-.3c-15.3-.2-19.9 0-20.2 1zM367.5 183.1c-.3.8-.4 29.1-.3 62.9l.3 61.5h29c27.8 0 29.3-.1 35.8-2.3 16.7-5.8 29-18.7 33.2-34.7 1.8-7.1 2.1-40.4.4-48.7-3.6-17.2-17.3-31.5-35.9-37.4-7.5-2.3-61.7-3.4-62.5-1.3zm55.3 25.8c4.5 2.3 8.5 6.7 11 12 1.4 3 1.7 6.9 1.7 24.1 0 18.8-.2 20.9-2.1 25-4.7 10-10.3 13.3-24.1 13.8l-10.3.4v-78.5l10 .6c7 .4 11.1 1.2 13.8 2.6z"/></svg>