<?xml version="1.0" encoding="UTF-8"?>
<svg version="1.1" xmlns="http://www.w3.org/2000/svg" xmlns:xlink="http://www.w3.org/1999/xlink">
<defs>

</defs>
<symbol id="i-architecture" xmlns="http://www.w3.org/2000/svg" viewBox="0 0 24 24"><path fill="none" d="M0 0h24v24H0z"/><path d="M6.36 18.78L6.61 21l1.62-1.54 2.77-7.6c-.68-.17-1.28-.51-1.77-.98l-2.87 7.9zm8.41-7.9c-.49.47-1.1.81-1.77.98l2.77 7.6L17.39 21l.26-2.22-2.88-7.9zM15 8c0-1.3-.84-2.4-2-2.82V3h-2v2.18C9.84 5.6 9 6.7 9 8c0 1.66 1.34 3 3 3s3-1.34 3-3zm-3 1c-.55 0-1-.45-1-1s.45-1 1-1 1 .45 1 1-.45 1-1 1z"/></symbol>
<symbol id="i-arrow-right" xmlns="http://www.w3.org/2000/svg" viewBox="0 0 24 24"><path fill="none" d="M0 0h24v24H0z"/><path d="M15 5l-1.41 1.41L18.17 11H2v2h16.17l-4.59 4.59L15 19l7-7-7-7z"/></symbol>
<symbol id="i-box" xmlns="http://www.w3.org/2000/svg" viewBox="0 0 511.973 511.973"><path d="M255.989 0L34.296 127.993v255.985l221.693 127.994 221.688-127.994V127.993zm176.683 136.651L255.989 238.616 79.301 136.651l176.688-102.01zM64.296 162.628l176.693 101.969v204.074L64.296 366.658zm206.693 306.043V264.597l176.688-101.968v204.03z"/></symbol>
<symbol id="i-building-city" xmlns="http://www.w3.org/2000/svg" viewBox="0 0 24 24"><path fill="none" d="M0 0h24v24H0V0z"/><path d="M15 11V5l-3-3-3 3v2H3v14h18V11h-6zm-8 8H5v-2h2v2zm0-4H5v-2h2v2zm0-4H5V9h2v2zm6 8h-2v-2h2v2zm0-4h-2v-2h2v2zm0-4h-2V9h2v2zm0-4h-2V5h2v2zm6 12h-2v-2h2v2zm0-4h-2v-2h2v2z"/></symbol>
<symbol id="i-building" xmlns="http://www.w3.org/2000/svg" viewBox="0 0 24 24"><path fill="none" d="M0 0h24v24H0z"/><path d="M17 11V3H7v4H3v14h8v-4h2v4h8V11h-4zM7 19H5v-2h2v2zm0-4H5v-2h2v2zm0-4H5V9h2v2zm4 4H9v-2h2v2zm0-4H9V9h2v2zm0-4H9V5h2v2zm4 8h-2v-2h2v2zm0-4h-2V9h2v2zm0-4h-2V5h2v2zm4 12h-2v-2h2v2zm0-4h-2v-2h2v2z"/></symbol>
<symbol id="i-chevron-down" xmlns="http://www.w3.org/2000/svg" viewBox="0 0 24 24"><path d="M24 24H0V0h24v24z" fill="none" opacity=".87"/><path d="M16.59 8.59L12 13.17 7.41 8.59 6 10l6 6 6-6-1.41-1.41z"/></symbol>
<symbol id="i-facebook" xmlns="http://www.w3.org/2000/svg" aria-hidden="true" viewBox="0 0 320 512"><path fill="currentColor" d="M279.14 288l14.22-92.66h-88.91v-60.13c0-25.35 12.42-50.06 52.24-50.06h40.42V6.26S260.43 0 225.36 0c-73.22 0-121.08 44.38-121.08 124.72v70.62H22.89V288h81.39v224h100.17V288z"/></symbol>
<symbol id="i-home" xmlns="http://www.w3.org/2000/svg" viewBox="0 0 24 24"><path fill="none" d="M0 0h24v24H0V0z"/><path d="M12 5.69l5 4.5V18h-2v-6H9v6H7v-7.81l5-4.5M12 3L2 12h3v8h6v-6h2v6h6v-8h3L12 3z"/></symbol>
<symbol id="i-instagram" xmlns="http://www.w3.org/2000/svg" aria-hidden="true" viewBox="0 0 448 512"><path fill="currentColor" d="M224.1 141c-63.6 0-114.9 51.3-114.9 114.9s51.3 114.9 114.9 114.9S339 319.5 339 255.9 287.7 141 224.1 141zm0 189.6c-41.1 0-74.7-33.5-74.7-74.7s33.5-74.7 74.7-74.7 74.7 33.5 74.7 74.7-33.6 74.7-74.7 74.7zm146.4-194.3c0 14.9-12 26.8-26.8 26.8-14.9 0-26.8-12-26.8-26.8s12-26.8 26.8-26.8 26.8 12 26.8 26.8zm76.1 27.2c-1.7-35.9-9.9-67.7-36.2-93.9-26.2-26.2-58-34.4-93.9-36.2-37-2.1-147.9-2.1-184.9 0-35.8 1.7-67.6 9.9-93.9 36.1s-34.4 58-36.2 93.9c-2.1 37-2.1 147.9 0 184.9 1.7 35.9 9.9 67.7 36.2 93.9s58 34.4 93.9 36.2c37 2.1 147.9 2.1 184.9 0 35.9-1.7 67.7-9.9 93.9-36.2 26.2-26.2 34.4-58 36.2-93.9 2.1-37 2.1-147.8 0-184.8zM398.8 388c-7.8 19.6-22.9 34.7-42.6 42.6-29.5 11.7-99.5 9-132.1 9s-102.7 2.6-132.1-9c-19.6-7.8-34.7-22.9-42.6-42.6-11.7-29.5-9-99.5-9-132.1s-2.6-102.7 9-132.1c7.8-19.6 22.9-34.7 42.6-42.6 29.5-11.7 99.5-9 132.1-9s102.7-2.6 132.1 9c19.6 7.8 34.7 22.9 42.6 42.6 11.7 29.5 9 99.5 9 132.1s2.7 102.7-9 132.1z"/></symbol>
<symbol id="i-linkedin" xmlns="http://www.w3.org/2000/svg" aria-hidden="true" viewBox="0 0 448 512"><path fill="currentColor" d="M100.28 448H7.4V148.9h92.88zM53.79 108.1C24.09 108.1 0 83.5 0 53.8a53.79 53.79 0 01107.58 0c0 29.7-24.1 54.3-53.79 54.3zM447.9 448h-92.68V302.4c0-34.7-.7-79.2-48.29-79.2-48.29 0-55.69 37.7-55.69 76.7V448h-92.78V148.9h89.08v40.8h1.3c12.4-23.5 42.69-48.3 87.88-48.3 94 0 111.28 61.9 111.28 142.3V448z"/></symbol>
<symbol id="i-mail-duo" xmlns="http://www.w3.org/2000/svg" viewBox="0 0 24 24"><path fill="none" d="M0 0h24v24H0V0z"/><path d="M20 8l-8 5-8-5v10h16zm0-2H4l8 4.99z" opacity=".3"/><path d="M4 20h16c1.1 0 2-.9 2-2V6c0-1.1-.9-2-2-2H4c-1.1 0-2 .9-2 2v12c0 1.1.9 2 2 2zM20 6l-8 4.99L4 6h16zM4 8l8 5 8-5v10H4V8z"/></symbol>
<symbol id="i-mail" xmlns="http://www.w3.org/2000/svg" viewBox="0 0 24 24"><path d="M0 0h24v24H0V0z" fill="none"/><path d="M22 6c0-1.1-.9-2-2-2H4c-1.1 0-2 .9-2 2v12c0 1.1.9 2 2 2h16c1.1 0 2-.9 2-2V6zm-2 0l-8 5-8-5h16zm0 12H4V8l8 5 8-5v10z"/></symbol>
<symbol id="i-phone-duo" xmlns="http://www.w3.org/2000/svg" viewBox="0 0 24 24"><path fill="none" d="M0 0h24v24H0V0z"/><path d="M6.54 5h-1.5c.09 1.32.34 2.58.75 3.79l1.2-1.21c-.24-.83-.39-1.7-.45-2.58zm8.66 13.21c1.21.41 2.48.67 3.8.76v-1.5c-.88-.07-1.75-.22-2.6-.45l-1.2 1.19z" opacity=".3"/><path d="M15 12h2c0-2.76-2.24-5-5-5v2c1.66 0 3 1.34 3 3zm4 0h2a9 9 0 00-9-9v2c3.87 0 7 3.13 7 7zm1 3.5c-1.25 0-2.45-.2-3.57-.57-.1-.03-.21-.05-.31-.05-.26 0-.51.1-.71.29l-2.2 2.2a15.045 15.045 0 01-6.59-6.59l2.2-2.21a.96.96 0 00.25-1A11.36 11.36 0 018.5 4c0-.55-.45-1-1-1H4c-.55 0-1 .45-1 1 0 9.39 7.61 17 17 17 .55 0 1-.45 1-1v-3.5c0-.55-.45-1-1-1zM5.03 5h1.5c.07.88.22 1.75.45 2.58l-1.2 1.21c-.4-1.21-.66-2.47-.75-3.79zM19 18.97c-1.32-.09-2.6-.35-3.8-.76l1.2-1.2c.85.24 1.72.39 2.6.45v1.51z"/></symbol>
<symbol id="i-phone" xmlns="http://www.w3.org/2000/svg" viewBox="0 0 24 24"><path d="M0 0h24v24H0V0z" fill="none"/><path d="M6.54 5c.06.89.21 1.76.45 2.59l-1.2 1.2c-.41-1.2-.67-2.47-.76-3.79h1.51m9.86 12.02c.85.24 1.72.39 2.6.45v1.49c-1.32-.09-2.59-.35-3.8-.75l1.2-1.19M7.5 3H4c-.55 0-1 .45-1 1 0 9.39 7.61 17 17 17 .55 0 1-.45 1-1v-3.49c0-.55-.45-1-1-1-1.24 0-2.45-.2-3.57-.57a.84.84 0 00-.31-.05c-.26 0-.51.1-.71.29l-2.2 2.2a15.149 15.149 0 01-6.59-6.59l2.2-2.2c.28-.28.36-.67.25-1.02A11.36 11.36 0 018.5 4c0-.55-.45-1-1-1z"/></symbol>
<symbol id="i-shop-2" xmlns="http://www.w3.org/2000/svg" viewBox="0 0 24 24"><path fill="none" d="M0 0h24v24H0z"/><path d="M21.9 8.89l-1.05-4.37c-.22-.9-1-1.52-1.91-1.52H5.05c-.9 0-1.69.63-1.9 1.52L2.1 8.89c-.24 1.02-.02 2.06.62 2.88.08.11.19.19.28.29V19c0 1.1.9 2 2 2h14c1.1 0 2-.9 2-2v-6.94c.09-.09.2-.18.28-.28.64-.82.87-1.87.62-2.89zm-2.99-3.9l1.05 4.37c.1.42.01.84-.25 1.17-.14.18-.44.47-.94.47-.61 0-1.14-.49-1.21-1.14L16.98 5l1.93-.01zM13 5h1.96l.54 4.52c.05.39-.07.78-.33 1.07-.22.26-.54.41-.95.41-.67 0-1.22-.59-1.22-1.31V5zM8.49 9.52L9.04 5H11v4.69c0 .72-.55 1.31-1.29 1.31-.34 0-.65-.15-.89-.41a1.42 1.42 0 01-.33-1.07zm-4.45-.16L5.05 5h1.97l-.58 4.86c-.08.65-.6 1.14-1.21 1.14-.49 0-.8-.29-.93-.47-.27-.32-.36-.75-.26-1.17zM5 19v-6.03c.08.01.15.03.23.03.87 0 1.66-.36 2.24-.95.6.6 1.4.95 2.31.95.87 0 1.65-.36 2.23-.93.59.57 1.39.93 2.29.93.84 0 1.64-.35 2.24-.95.58.59 1.37.95 2.24.95.08 0 .15-.02.23-.03V19H5z"/></symbol>
<symbol id="i-shop" xmlns="http://www.w3.org/2000/svg" viewBox="0 0 24 24"><path fill="none" d="M0 0h24v24H0V0z"/><path d="M18.36 9l.6 3H5.04l.6-3h12.72M20 4H4v2h16V4zm0 3H4l-1 5v2h1v6h10v-6h4v6h2v-6h1v-2l-1-5zM6 18v-4h6v4H6z"/></symbol>
<symbol id="i-tick" xmlns="http://www.w3.org/2000/svg" viewBox="0 0 24 24"><path d="M.828 13.336c-.261.304-.388.691-.357 1.091s.215.764.52 1.024l7.403 6.346a1.49 1.49 0 001.108.355c.405-.036.77-.229 1.028-.542L23.192 6.199c.254-.31.373-.7.334-1.099a1.496 1.496 0 00-.541-1.014l-2.318-1.904a1.503 1.503 0 00-2.111.207L8.811 14.25l-3.916-3.355a1.504 1.504 0 00-2.115.163z"/></symbol>
</svg>